<?xml version="1.0" encoding="utf-8"?>
<!-- Generator: Adobe Illustrator 16.0.3, SVG Export Plug-In . SVG Version: 6.00 Build 0)  -->
<!DOCTYPE svg PUBLIC "-//W3C//DTD SVG 1.1//EN" "http://www.w3.org/Graphics/SVG/1.1/DTD/svg11.dtd">
<svg version="1.1" id="Layer_1" xmlns="http://www.w3.org/2000/svg" xmlns:xlink="http://www.w3.org/1999/xlink" x="0px" y="0px"
	 width="400px" height="400px" viewBox="0 0 400 400" enable-background="new 0 0 400 400" xml:space="preserve">
<circle opacity="0.7" fill="#C8C8C8" enable-background="new    " cx="199.681" cy="200.085" r="200"/>
<g>
	<g>
		<path fill="#FFFFFF" d="M243.256,71.659c-1.65-1.828-3.002-1.208-3.002,1.377v53.257c0,2.586,1.908,4.699,4.242,4.699h48.07
			c2.336,0,2.893-1.494,1.242-3.324L243.256,71.659z"/>
		<path fill="#FFFFFF" d="M292.566,143.522h-59.381c-2.334,0-4.242-2.115-4.242-4.699V73.037c0-2.586-1.906-4.7-4.239-4.7H117.253
			c-2.331,0-4.239,2.114-4.239,4.7v241.22c0,2.586,1.909,4.703,4.239,4.703h175.313c2.336,0,4.242-2.117,4.242-4.703V148.222
			C296.809,145.637,294.902,143.522,292.566,143.522z M136.188,91.982c0-1.943,1.677-3.535,3.727-3.535h69.547
			c2.05,0,3.724,1.59,3.724,3.535v4.711c0,1.944-1.674,3.534-3.724,3.534h-69.547c-2.049,0-3.727-1.59-3.727-3.534V91.982z
			 M136.188,131.057c0-1.943,1.677-3.532,3.727-3.532h69.547c2.05,0,3.724,1.589,3.724,3.532v4.715c0,1.941-1.674,3.532-3.724,3.532
			h-69.547c-2.049,0-3.727-1.59-3.727-3.532V131.057z M273.629,292.079c0,1.942-1.675,3.534-3.727,3.534H139.915
			c-2.049,0-3.727-1.59-3.727-3.534v-4.712c0-1.944,1.677-3.535,3.727-3.535h129.987c2.052,0,3.727,1.591,3.727,3.535V292.079z
			 M273.629,253c0,1.943-1.675,3.533-3.727,3.533H139.915c-2.049,0-3.727-1.589-3.727-3.533v-4.713c0-1.942,1.677-3.529,3.727-3.529
			h129.987c2.052,0,3.727,1.587,3.727,3.529V253z M273.629,213.926c0,1.941-1.675,3.531-3.727,3.531H139.915
			c-2.049,0-3.727-1.59-3.727-3.531v-4.714c0-1.942,1.677-3.532,3.727-3.532h129.987c2.052,0,3.727,1.59,3.727,3.532V213.926z
			 M273.629,174.849c0,1.942-1.675,3.532-3.727,3.532H139.915c-2.049,0-3.727-1.59-3.727-3.532v-4.714
			c0-1.942,1.677-3.533,3.727-3.533h129.987c2.052,0,3.727,1.591,3.727,3.533V174.849z"/>
	</g>
</g>
</svg>
