<?xml version="1.0" encoding="utf-8"?>
<!-- Generator: Adobe Illustrator 16.0.3, SVG Export Plug-In . SVG Version: 6.00 Build 0)  -->
<!DOCTYPE svg PUBLIC "-//W3C//DTD SVG 1.1//EN" "http://www.w3.org/Graphics/SVG/1.1/DTD/svg11.dtd">
<svg version="1.1" id="Layer_1" xmlns="http://www.w3.org/2000/svg" xmlns:xlink="http://www.w3.org/1999/xlink" x="0px" y="0px"
	 width="400px" height="400px" viewBox="0 0 400 400" enable-background="new 0 0 400 400" xml:space="preserve">
<g>
	<g>
		<circle fill="#F0AB00" cx="200" cy="200.21" r="200"/>
		<path fill="#FFFFFF" d="M338.597,203.732c3.094-3.871,5.016-8.709,5.016-14.044c0-12.495-10.131-22.628-22.625-22.628
			c0-12.495-10.131-22.624-22.625-22.624c-9.396,0-17.453,5.724-20.873,13.876c-0.502,6.54-2.338,12.837-5.439,18.587
			c6.177,4.248,11.442,9.875,15.442,16.546c5.278,8.806,8.07,19.021,8.07,29.542c0,13.102-4.289,25.138-11.417,34.578h8.555v30.164
			h11.315v-30.164h22.628c15.619,0,28.283-12.662,28.283-28.284C354.927,217.957,348.219,208.251,338.597,203.732z"/>
		<path fill="#FFFFFF" d="M110.867,249.642H86.706c-22.995,0-41.633-17.081-41.633-38.159c0-15.288,9.875-28.384,24.042-34.473
			c-4.552-5.225-7.386-11.754-7.386-18.953c0-16.858,14.912-30.527,33.305-30.527c0-16.856,14.909-30.526,33.302-30.526
			c11.51,0,21.651,5.348,27.635,13.48c-19.146,4.12-33.62,22.354-33.62,44.167c0,7.853,1.922,15.433,5.604,22.25
			c-6.18,4.248-11.448,9.875-15.445,16.546c-5.278,8.804-8.073,19.021-8.073,29.542C104.438,232.66,106.784,241.743,110.867,249.642
			z M120.01,262.431v27.917h16.654v-16.354C130.412,271.337,124.768,267.379,120.01,262.431z"/>
		<path fill="#FFFFFF" d="M263.706,178.894c4.896-6.682,7.939-15.033,7.939-24.244c0-21.563-16.036-39.049-35.822-39.049
			c0-21.565-16.039-39.051-35.823-39.051c-19.784,0-35.826,17.486-35.826,39.051c-19.781,0-35.823,17.486-35.823,39.049
			c0,9.211,3.052,17.562,7.945,24.244c-15.234,7.792-25.854,24.542-25.854,44.094c0,26.961,20.044,48.813,44.776,48.813h35.826
			v52.067h17.912v-52.067h35.822c24.732,0,44.784-21.852,44.784-48.813C289.563,203.436,278.94,186.686,263.706,178.894z"/>
	</g>
</g>
</svg>
